HIERARCHY
ROOT Hips
{
	OFFSET 0.00000 0.00000 0.00000
	CHANNELS 6 Xposition Yposition Zposition Yrotation Zrotation Xrotation 
	JOINT Lumbar
	{
		OFFSET 0 0 0
		CHANNELS 3 Zrotation Xrotation Yrotation
		JOINT Neck
		{
			OFFSET 0.00 0.2701 0.00
			CHANNELS 3 Zrotation Xrotation Yrotation
			End Site
			{
				OFFSET 0.00 0.1379 0.00
			}
		}
		JOINT RightShoulder
		{
			OFFSET 0.0119 0.2289 0.1181
			CHANNELS 3 Zrotation Xrotation Yrotation
			JOINT RightElbow
			{
				OFFSET 0.00 -0.1475 0.00
				CHANNELS 2 Zrotation Yrotation
				JOINT RightWrist
				{
					OFFSET 0.00 -0.1605 0.00
					CHANNELS 2 Zrotation Xrotation
					End Site
					{
						OFFSET 0.0040 -0.1068 0.0006
					}
				}
			}
		}
		JOINT LeftShoulder
		{
			OFFSET 0.0119 0.2289 -0.1181
			CHANNELS 3 Zrotation Xrotation Yrotation
			JOINT LeftElbow
			{
				OFFSET 0.00 -0.1475 0.00
				CHANNELS 2 Zrotation Yrotation
				JOINT LeftWrist
				{
					OFFSET 0.00 -0.1605 0.00
					CHANNELS 2 Zrotation Xrotation
					End Site
					{
						OFFSET 0.0040 -0.1068 -0.0006
					}
				}
			}
		}
	}
	JOINT RightHip
	{
		OFFSET 0.0316 -0.0424 0.0458
		CHANNELS 3 Zrotation Xrotation Yrotation
		JOINT RightKnee
		{
			OFFSET 0.00 -0.2438 0.00
			CHANNELS 1 Zrotation
			JOINT RightAnkle
			{
				OFFSET 0.00 -0.2449 0.00
				CHANNELS 3 Zrotation Xrotation Yrotation
				End Site
				{
					OFFSET 0.1237 -0.0542 0.0051
				}
			}
		}
	}
	JOINT LeftHip
	{
		OFFSET 0.0316 -0.0424 -0.0458
		CHANNELS 3 Zrotation Xrotation Yrotation
		JOINT LeftKnee
		{
			OFFSET 0.00 -0.2438 0.00
			CHANNELS 1 Zrotation
			JOINT LeftAnkle
			{
				OFFSET 0.00 -0.2449 0.00
				CHANNELS 3 Zrotation Xrotation Yrotation
				End Site
				{
					OFFSET 0.1237 -0.0542 -0.0051
				}
			}
		}
	}
}
MOTION
Frames: 11
Frame Time: 0.02
-0.17684 -0.18468 0.14605 19.22642 -40.22372 -9.41555 6.80467 0.75428 1.54113 45.73789 1.48316 -0.83078 51.08921 11.40184 55.00957 63.09338 132.24939 18.3465 7.39823 49.70108 -11.40184 -64.17121 79.98675 -126.12277 24.77328 -3.24281 122.17138 0.08857 -15.91368 -83.34295 -9.08486 -1.9927 -1.7466 127.02888 14.5888 34.81692 -118.94855 -4.89202 5.0239 3.44677
-0.17698 -0.1847 0.14607 19.19561 -40.18488 -9.42396 6.79942 0.77366 1.53371 45.72119 1.52164 -0.83078 51.05683 11.40184 55.01201 63.03421 132.24831 18.31132 7.37081 49.72659 -11.40185 -64.17121 79.8802 -126.15853 24.7169 -3.28073 122.13496 0.07556 -15.94679 -83.33484 -9.09268 -1.98866 -1.74406 127.00188 14.63681 34.74424 -119.19644 -5.66061 4.79641 3.31771
-0.17709 -0.18478 0.14602 19.14107 -40.1547 -9.4352 6.80682 0.78188 1.51792 45.70916 1.56226 -0.83078 51.02581 11.40185 55.00662 62.95341 132.24459 18.27235 7.34088 49.7501 -11.40184 -64.17121 79.75587 -126.19096 24.67339 -3.31845 122.09849 0.06443 -16.00135 -83.31138 -9.09576 -1.9806 -1.73871 126.97911 14.70836 34.67468 -119.42949 -6.98422 4.39805 3.09718
-0.17721 -0.18484 0.14601 19.09818 -40.12162 -9.44554 6.80859 0.79499 1.50601 45.69496 1.60148 -0.83078 50.99443 11.40185 55.00344 62.88265 132.24286 18.23881 7.3147 49.77326 -11.40184 -64.17121 79.63918 -126.22413 24.62675 -3.35521 122.06286 0.05252 -16.04544 -83.29517 -9.10071 -1.97422 -1.73457 126.95469 14.76917 34.60525 -119.66283 -8.01126 4.09044 2.92571
-0.17733 -0.18489 0.14598 19.05155 -40.08334 -9.45396 6.80913 0.80902 1.49289 45.6803 1.64122 -0.83078 50.96285 11.40185 55.00719 62.81007 132.23742 18.19044 7.27706 49.80159 -11.40185 -64.17121 79.52511 -126.2603 24.56828 -3.39652 122.02298 0.03941 -16.09374 -83.27843 -9.10701 -1.96834 -1.73066 126.92862 14.82921 34.52882 -119.92513 -9.21495 3.7311 2.72454
-0.17743 -0.18496 0.14597 19.00658 -40.05827 -9.46784 6.81558 0.81843 1.4817 45.66851 1.68223 -0.83078 50.93026 11.40186 54.99296 62.73743 132.23944 18.17093 7.26292 49.81807 -11.40184 -64.1712 79.40046 -126.2897 24.53766 -3.42839 121.99213 0.02995 -16.13816 -83.25856 -9.10939 -1.96053 -1.72564 126.90721 14.89784 34.46732 -120.12326 -10.18745 3.4371 2.56247
-0.17749 -0.18504 0.14607 18.97836 -40.06741 -9.48794 6.83482 0.81776 1.46487 45.65628 1.70936 -0.83078 50.91235 11.40185 54.94651 62.65783 132.26038 18.24255 7.31334 49.81077 -11.40183 -64.17116 79.25807 -126.29845 24.58126 -3.43239 121.98762 0.02554 -16.16372 -83.23814 -9.10136 -1.9483 -1.71818 126.89742 14.97109 34.4534 -120.14351 -10.37471 3.37116 2.53457
-0.17751 -0.18512 0.14618 18.95151 -40.08951 -9.51489 6.85983 0.81289 1.45258 45.64784 1.74074 -0.83078 50.89038 11.40185 54.8798 62.58062 132.28968 18.34162 7.38749 49.79029 -11.40182 -64.1711 79.10401 -126.30063 24.65289 -3.42702 121.99192 0.02566 -16.18498 -83.21437 -9.08968 -1.93432 -1.70974 126.89225 15.05412 34.45322 -120.10009 -10.31356 3.37547 2.54833
-0.17754 -0.1852 0.14627 18.91995 -40.10615 -9.54402 6.88251 0.80987 1.44686 45.64278 1.78124 -0.83078 50.85842 11.40185 54.81165 62.51088 132.31628 18.421 7.45179 49.77029 -11.40181 -64.17105 78.95097 -126.30815 24.71081 -3.42739 121.99157 0.02676 -16.20994 -83.18911 -9.08018 -1.92122 -1.7018 126.88526 15.14208 34.44224 -120.08849 -10.37477 3.34317 2.5402
-0.1776 -0.18529 0.14643 18.90489 -40.12204 -9.55095 6.90412 0.80642 1.4048 45.61755 1.77535 -0.83078 50.87558 11.40184 54.78638 62.40644 132.33684 18.52984 7.51312 49.77299 -11.4018 -64.171 78.8166 -126.30725 24.77127 -3.42232 121.99455 0.01509 -16.22835 -83.17557 -9.06835 -1.90761 -1.69348 126.87741 15.19344 34.4506 -120.06466 -10.41526 3.3242 2.54106
-0.17759 -0.18535 0.14645 18.85599 -40.14147 -9.60566 6.92951 0.80336 1.4391 45.63367 1.86682 -0.83078 50.79054 11.40184 54.66936 62.37241 132.37364 18.58496 7.58498 49.72591 -11.40179 -64.17095 78.63931 -126.32031 24.83543 -3.42531 121.99195 0.03108 -16.25903 -83.13757 -9.06051 -1.89472 -1.68579 126.87219 15.32035 34.42191 -120.05082 -10.43267 3.29704 2.53469
